<svg id="Layer_1" data-name="Layer 1" xmlns="http://www.w3.org/2000/svg" viewBox="0 0 89.52 14"><defs><style>.cls-1{fill:#4a4a4a;}</style></defs><title>ProjectManager</title><path class="cls-1" d="M2.55.59H0v10H1.87V7h.46a3,3,0,0,0,2.33-.86,3.43,3.43,0,0,0,.81-2.45Q5.47.59,2.55.59ZM3.25,5a1.33,1.33,0,0,1-1,.38H1.87V2.2h.45a1.15,1.15,0,0,1,1,.38,1.84,1.84,0,0,1,.31,1.17A1.86,1.86,0,0,1,3.25,5ZM9.88,2.83a2.08,2.08,0,0,1,.66.11l-.21,1.77a1.43,1.43,0,0,0-.5-.07,1.17,1.17,0,0,0-1,.52,2.79,2.79,0,0,0-.35,1.53v3.93H6.62V3H8.13l.2,1.19h.06a2.77,2.77,0,0,1,.66-1A1.27,1.27,0,0,1,9.88,2.83Zm4.19,0a2.6,2.6,0,0,0-2.19,1,4.72,4.72,0,0,0-.79,2.91,5.69,5.69,0,0,0,.36,2.11,3.09,3.09,0,0,0,1,1.38,2.61,2.61,0,0,0,1.55.48,2.58,2.58,0,0,0,2.18-1A4.72,4.72,0,0,0,17,6.79a4.72,4.72,0,0,0-.8-2.89A2.55,2.55,0,0,0,14.07,2.83Zm0,6.37a.86.86,0,0,1-.83-.61A4.69,4.69,0,0,1,13,6.79,4.62,4.62,0,0,1,13.22,5a.87.87,0,0,1,.83-.59.89.89,0,0,1,.84.59,4.82,4.82,0,0,1,.26,1.8C15.15,8.4,14.79,9.2,14.05,9.2ZM18.36,3h1.82v8.53a2.75,2.75,0,0,1-.55,1.84,1.94,1.94,0,0,1-1.55.65,2.39,2.39,0,0,1-1-.17V12.31a1.71,1.71,0,0,0,.59.13c.43,0,.65-.39.65-1.17ZM20,.27a1,1,0,0,1,.27.71A.94.94,0,0,1,20,1.7a1,1,0,0,1-.72.26,1,1,0,0,1-.72-.25A1,1,0,0,1,18.29,1a1,1,0,0,1,.26-.72A1,1,0,0,1,19.28,0,.94.94,0,0,1,20,.27Zm4.3,2.56A2.42,2.42,0,0,0,22.21,3.9a5.14,5.14,0,0,0-.74,3,4.47,4.47,0,0,0,.82,2.88,2.76,2.76,0,0,0,2.26,1,4,4,0,0,0,2.11-.53V8.73a3.56,3.56,0,0,1-1.82.56,1.33,1.33,0,0,1-1.1-.5,2.44,2.44,0,0,1-.42-1.52H27v-1a4,4,0,0,0-.72-2.55A2.4,2.4,0,0,0,24.3,2.83Zm-.95,3.11a2.65,2.65,0,0,1,.29-1.28.75.75,0,0,1,.65-.42.74.74,0,0,1,.66.43,2.79,2.79,0,0,1,.25,1.27ZM30.06,5a4.7,4.7,0,0,0-.26,1.82,4.68,4.68,0,0,0,.25,1.77.87.87,0,0,0,.83.59,2.68,2.68,0,0,0,1.44-.48v1.6a3,3,0,0,1-1.6.45,2.38,2.38,0,0,1-2.07-1,5,5,0,0,1-.72-2.93,5.4,5.4,0,0,1,.68-3,2.35,2.35,0,0,1,2.09-1,3.61,3.61,0,0,1,.89.13,3.16,3.16,0,0,1,.84.35L31.9,4.74a2,2,0,0,0-1-.34A.86.86,0,0,0,30.06,5Zm6,4.21A2.09,2.09,0,0,0,36.9,9v1.43a2.33,2.33,0,0,1-1.34.31,1.79,1.79,0,0,1-1.47-.59,2.8,2.8,0,0,1-.48-1.78v-4h-.74V3.61l1-.66.47-1.62h1.16V3h1.39V4.43H35.45v4C35.45,9,35.66,9.22,36.07,9.22ZM47.9.59h2.9v10H49V3.82a17.22,17.22,0,0,1,.1-1.73h-.05l-1.91,8.53h-2L43.23,2.08h-.08a13.39,13.39,0,0,1,.13,1.81v6.73H41.55V.59h2.87l1.72,7.89h0Zm7.17,2.23a4.54,4.54,0,0,0-2.48.72l.63,1.26a3.24,3.24,0,0,1,1.58-.53c.62,0,.93.36.93,1.07v.55l-1,0a3.13,3.13,0,0,0-2,.65,2.27,2.27,0,0,0-.66,1.79,2.85,2.85,0,0,0,.48,1.76,1.59,1.59,0,0,0,1.33.63A2.12,2.12,0,0,0,55,10.51a2.59,2.59,0,0,0,.84-.93h0l.36,1h1.34V5.49a2.83,2.83,0,0,0-.63-2A2.37,2.37,0,0,0,55.07,2.82Zm.66,4.87a2.12,2.12,0,0,1-.3,1.19.92.92,0,0,1-.8.45c-.45,0-.68-.31-.68-.94a1.35,1.35,0,0,1,.3-1,1.24,1.24,0,0,1,.91-.36l.57,0Zm8.43-4.14a3.55,3.55,0,0,1,.51,2.08v5H62.84V6.07a3.11,3.11,0,0,0-.2-1.26A.68.68,0,0,0,62,4.39a.9.9,0,0,0-.86.58,4.92,4.92,0,0,0-.28,2v3.67H59V3h1.44l.22,1h.12a2,2,0,0,1,.71-.83,1.9,1.9,0,0,1,1.08-.3A1.81,1.81,0,0,1,64.16,3.55Zm4.59-.73a4.56,4.56,0,0,0-2.48.72L66.9,4.8a3.27,3.27,0,0,1,1.58-.53c.62,0,.93.36.93,1.07v.55l-1,0a3.18,3.18,0,0,0-2,.65,2.27,2.27,0,0,0-.66,1.79,2.79,2.79,0,0,0,.49,1.76,1.57,1.57,0,0,0,1.32.63,2.09,2.09,0,0,0,1.09-.25,2.59,2.59,0,0,0,.84-.93h0l.37,1h1.34V5.49a2.83,2.83,0,0,0-.64-2A2.35,2.35,0,0,0,68.75,2.82Zm.66,4.87a2.12,2.12,0,0,1-.3,1.19.91.91,0,0,1-.8.45c-.45,0-.67-.31-.67-.94a1.39,1.39,0,0,1,.29-1,1.26,1.26,0,0,1,.92-.36l.56,0Zm6.17-4.8A2.78,2.78,0,0,0,75,2.83a2.48,2.48,0,0,0-1.88.69,2.7,2.7,0,0,0-.66,1.94,3.19,3.19,0,0,0,.27,1.33,1.93,1.93,0,0,0,.75.88,4.32,4.32,0,0,0-.52.5,1.24,1.24,0,0,0-.19.36,1.09,1.09,0,0,0-.07.42,1,1,0,0,0,.22.67,1.35,1.35,0,0,0,.57.43,2.17,2.17,0,0,0-1.08.7,1.74,1.74,0,0,0-.39,1.12,1.92,1.92,0,0,0,.69,1.58,3,3,0,0,0,2,.55,4,4,0,0,0,2.57-.73,2.51,2.51,0,0,0,.89-2.06,2.15,2.15,0,0,0-.53-1.58,2,2,0,0,0-1.49-.52H75c-.55,0-.83-.16-.83-.48a.54.54,0,0,1,.12-.36A2,2,0,0,1,74.56,8a1.66,1.66,0,0,0,.51.05,2.45,2.45,0,0,0,1.84-.68,2.63,2.63,0,0,0,.66-1.9,2.43,2.43,0,0,0-.27-1.21l.91-.21V3H76A3.79,3.79,0,0,0,75.58,2.89Zm-1,7.82h.88a1.5,1.5,0,0,1,.84.17.79.79,0,0,1,.22.62,1,1,0,0,1-.42.86,2,2,0,0,1-1.24.32,1.25,1.25,0,0,1-.82-.25.85.85,0,0,1-.28-.69,1.18,1.18,0,0,1,.22-.76A.74.74,0,0,1,74.54,10.71ZM75,6.83c-.5,0-.76-.45-.76-1.35s.26-1.42.76-1.42.75.47.75,1.4S75.54,6.83,75,6.83Zm6.66-4A2.42,2.42,0,0,0,79.61,3.9a5.14,5.14,0,0,0-.74,3,4.47,4.47,0,0,0,.82,2.88,2.76,2.76,0,0,0,2.26,1,4,4,0,0,0,2.11-.53V8.73a3.56,3.56,0,0,1-1.82.56,1.33,1.33,0,0,1-1.1-.5,2.44,2.44,0,0,1-.42-1.52h3.67v-1a4,4,0,0,0-.72-2.55A2.4,2.4,0,0,0,81.7,2.83Zm-1,3.11A2.65,2.65,0,0,1,81,4.66a.75.75,0,0,1,.65-.42.74.74,0,0,1,.66.43,2.79,2.79,0,0,1,.25,1.27Zm8.77-3L89.3,4.71a1.36,1.36,0,0,0-.5-.07,1.16,1.16,0,0,0-1,.52,2.7,2.7,0,0,0-.36,1.53v3.93H85.6V3h1.5l.21,1.19h.06a2.77,2.77,0,0,1,.66-1,1.26,1.26,0,0,1,.83-.31A2.17,2.17,0,0,1,89.52,2.94Z"/></svg>